<?xml version="1.0" encoding="UTF-8"?>
<svg xmlns="http://www.w3.org/2000/svg" xmlns:xlink="http://www.w3.org/1999/xlink" width="62px" height="55px" viewBox="0 0 62 55" version="1.1">
<g id="surface1">
<path style=" stroke:none;fill-rule:nonzero;fill:rgb(0%,0%,0%);fill-opacity:1;" d="M 14.980469 0.375 C 8.394531 1.820312 3.738281 6.601562 2.375 13.25 C 1.882812 15.59375 1.882812 16.8125 2.328125 18.957031 C 2.996094 22.121094 3.886719 23.265625 7.378906 25.433594 C 8.492188 26.105469 9.457031 26.777344 9.53125 26.902344 C 9.605469 27.027344 9.558594 27.574219 9.410156 28.097656 L 9.160156 29.070312 L 7.179688 29.09375 C 5.050781 29.144531 3.886719 29.492188 2.550781 30.539062 C 0.890625 31.808594 0.273438 33.953125 0.246094 38.609375 C 0.222656 40.328125 0.199219 42.671875 0.171875 43.839844 C 0.0742188 49.070312 2.449219 52.808594 6.984375 54.550781 C 8.542969 55.148438 10.871094 55.199219 11.886719 54.675781 C 12.453125 54.375 12.652344 54.054688 12.875 52.90625 C 13.195312 51.339844 13.050781 49.820312 12.480469 48.972656 C 12.15625 48.449219 12.15625 48.375 12.480469 48.25 C 12.675781 48.175781 21.640625 48.101562 32.4375 48.074219 C 45.78125 48.074219 52.417969 47.976562 53.308594 47.800781 C 57.269531 46.929688 59.449219 44.910156 60.761719 40.902344 C 62.445312 35.71875 62.273438 30.089844 60.316406 26.203125 C 59.523438 24.660156 57.542969 22.84375 56.03125 22.320312 C 53.605469 21.472656 51.5 21.921875 48.902344 23.789062 C 48.035156 24.410156 47.242188 24.910156 47.167969 24.910156 C 47.070312 24.910156 47.070312 24.4375 47.167969 23.839844 C 47.664062 20.601562 48.40625 16.414062 49.398438 11.335938 C 50.585938 5.257812 50.660156 4.433594 50.238281 3.3125 C 49.917969 2.464844 49.59375 2.242188 48.652344 2.242188 C 47.316406 2.242188 42.488281 3.460938 42.042969 3.910156 C 41.769531 4.210938 41.351562 5.828125 40.804688 8.59375 C 40.011719 12.726562 39.964844 12.828125 39.34375 12.902344 L 38.699219 12.976562 L 38.824219 10.511719 C 38.949219 7.773438 38.601562 5.132812 37.90625 3.761719 C 37.238281 2.441406 34.589844 0 33.847656 0 C 33.078125 0 32.238281 0.921875 30.378906 3.886719 L 28.96875 6.179688 L 27.285156 4.433594 C 25.328125 2.367188 22.753906 0.996094 19.757812 0.398438 C 17.507812 -0.0742188 16.960938 -0.0742188 14.980469 0.375 Z M 20.054688 3.261719 C 21.789062 3.660156 24.09375 4.882812 25.476562 6.128906 C 27.609375 8.046875 29.414062 11.484375 30.082031 14.871094 C 30.183594 15.320312 30.332031 15.691406 30.457031 15.691406 C 30.800781 15.691406 32.484375 13.648438 32.855469 12.777344 C 33.449219 11.335938 32.757812 9.492188 31.347656 8.71875 C 31 8.542969 30.703125 8.269531 30.703125 8.09375 C 30.703125 7.722656 33.671875 2.988281 33.898438 2.988281 C 34.21875 2.988281 36.078125 5.105469 36.546875 6.003906 C 37.164062 7.222656 37.289062 10.0625 36.792969 11.757812 C 36.222656 13.773438 34.589844 15.84375 32.363281 17.386719 C 30.601562 18.609375 30.480469 18.757812 30.355469 19.753906 C 30.058594 22.070312 30.058594 22.417969 30.234375 22.417969 C 30.308594 22.417969 30.554688 22.046875 30.726562 21.597656 C 31.246094 20.351562 34.34375 17.386719 35.976562 16.589844 C 37.511719 15.816406 39.371094 15.644531 40.359375 16.191406 C 40.65625 16.339844 41.003906 16.390625 41.101562 16.265625 C 41.199219 16.164062 41.597656 14.445312 41.96875 12.453125 C 42.339844 10.460938 42.785156 8.21875 42.960938 7.472656 L 43.230469 6.128906 L 45.929688 5.554688 C 47.390625 5.230469 48.628906 5.007812 48.652344 5.03125 C 48.703125 5.082031 48.234375 7.621094 47.640625 10.710938 C 45.957031 19.453125 45.039062 25.28125 45.113281 26.851562 C 45.1875 28.195312 45.238281 28.273438 45.855469 28.347656 C 46.671875 28.445312 47.539062 28 49.71875 26.40625 C 51.824219 24.859375 53.285156 24.4375 54.894531 24.882812 C 57.34375 25.53125 57.941406 26.453125 57.941406 29.691406 C 57.941406 31.882812 58.410156 31.683594 58.484375 29.46875 L 58.558594 27.523438 L 59.101562 28.695312 C 61.257812 33.378906 59.746094 41.324219 56.257812 43.664062 C 53.878906 45.234375 54.894531 45.160156 32.1875 45.285156 C 20.824219 45.335938 11.339844 45.484375 11.117188 45.609375 C 10.523438 45.90625 9.902344 47.378906 9.902344 48.449219 C 9.902344 49.445312 10.199219 50.140625 10.945312 50.988281 C 11.214844 51.289062 11.363281 51.636719 11.265625 51.785156 C 11.042969 52.183594 8.417969 52.109375 7.15625 51.6875 C 5.472656 51.113281 3.613281 49.34375 2.699219 47.429688 C 2.007812 46.007812 1.882812 45.535156 1.882812 43.765625 C 1.855469 41.351562 2.304688 39.730469 2.945312 39.980469 C 3.960938 40.429688 4.210938 40.402344 4.210938 39.953125 C 4.210938 39.679688 3.8125 39.234375 3.34375 38.933594 C 1.066406 37.4375 1.980469 33.351562 4.828125 32.234375 C 5.917969 31.835938 8.34375 31.835938 9.457031 32.257812 C 10.078125 32.507812 10.871094 30.714844 11.289062 28.171875 C 11.636719 26.054688 11.636719 26.03125 11.09375 25.65625 C 7.921875 23.515625 5 20.699219 4.332031 19.128906 C 3.019531 15.941406 4.285156 11.257812 7.429688 7.695312 C 10.621094 4.0625 15.722656 2.265625 20.054688 3.261719 Z M 20.054688 3.261719 "/>
<path style=" stroke:none;fill-rule:nonzero;fill:rgb(0%,0%,0%);fill-opacity:1;" d="M 13.246094 6.699219 C 11.585938 7.5 9.730469 9.289062 8.9375 10.859375 C 7.800781 13.078125 7.824219 15.890625 8.964844 17.113281 C 9.757812 17.960938 11.289062 18.730469 12.058594 18.632812 C 12.601562 18.558594 12.75 18.308594 13.246094 16.765625 C 14.238281 13.601562 15.996094 11.410156 18.59375 10.0625 C 19.980469 9.367188 19.933594 9.367188 20.675781 10.761719 C 21.023438 11.382812 20.996094 11.53125 20.082031 13.25 C 18.917969 15.46875 18.769531 16.066406 17.949219 21.996094 C 17.109375 28.195312 16.589844 29.59375 14.015625 32.707031 C 13.492188 33.351562 13.097656 33.925781 13.148438 33.976562 C 13.421875 34.226562 15.820312 35.320312 16.441406 35.46875 L 17.160156 35.644531 L 16.640625 36.195312 C 15.648438 37.289062 15.625 42.867188 16.613281 43.867188 C 17.332031 44.585938 18.667969 44.488281 19.289062 43.691406 C 19.757812 43.09375 19.808594 42.695312 19.808594 39.929688 C 19.808594 36.964844 19.785156 36.816406 19.191406 36.21875 L 18.570312 35.59375 L 19.140625 35.398438 C 20.972656 34.671875 22.707031 30.8125 23.621094 25.433594 C 24.117188 22.417969 24.140625 16.214844 23.648438 13.875 C 22.308594 7.449219 17.925781 4.433594 13.246094 6.699219 Z M 14.285156 10.039062 C 13.867188 10.609375 13.296875 11.382812 13.074219 11.707031 C 12.703125 12.230469 12.601562 12.28125 12.40625 11.957031 C 11.738281 10.984375 12.429688 9.9375 14.136719 9.242188 C 15.128906 8.84375 15.128906 8.917969 14.285156 10.039062 Z M 22.261719 19.429688 C 22.285156 21 22.109375 23.242188 21.914062 24.386719 C 21.515625 26.628906 20.601562 29.84375 20.277344 30.015625 C 20.007812 30.214844 19.015625 28.695312 19.015625 28.074219 C 18.992188 27.773438 19.3125 25.332031 19.683594 22.667969 C 20.230469 18.632812 20.476562 17.535156 21.097656 16.191406 L 21.863281 14.570312 L 22.0625 15.570312 C 22.160156 16.117188 22.261719 17.859375 22.261719 19.429688 Z M 18 41.273438 C 17.949219 41.945312 17.925781 41.398438 17.925781 40.105469 C 17.925781 38.808594 17.949219 38.261719 18 38.90625 C 18.050781 39.582031 18.050781 40.625 18 41.273438 Z M 18 41.273438 "/>
<path style=" stroke:none;fill-rule:nonzero;fill:rgb(0%,0%,0%);fill-opacity:1;" d="M 38.179688 18.632812 C 37.191406 19.179688 36.300781 20.476562 35.53125 22.519531 C 33.972656 26.726562 34.8125 29.417969 37.265625 27.898438 C 37.90625 27.5 38.402344 26.828125 39.171875 25.234375 C 40.160156 23.214844 40.234375 22.941406 40.234375 20.972656 C 40.234375 19.203125 40.160156 18.832031 39.765625 18.53125 C 39.171875 18.109375 39.195312 18.109375 38.179688 18.632812 Z M 37.761719 23.414062 C 37.535156 23.863281 37.289062 24.164062 37.238281 24.085938 C 37.164062 24.011719 37.289062 23.613281 37.511719 23.164062 C 37.734375 22.71875 37.984375 22.417969 38.03125 22.492188 C 38.105469 22.566406 37.984375 22.96875 37.761719 23.414062 Z M 37.761719 23.414062 "/>
<path style=" stroke:none;fill-rule:nonzero;fill:rgb(0%,0%,0%);fill-opacity:1;" d="M 28.871094 27.027344 C 28.625 27.574219 28.203125 28.523438 27.953125 29.144531 C 27.359375 30.515625 26.195312 32.40625 25.058594 33.828125 C 24.339844 34.75 24.289062 34.898438 24.660156 35.046875 C 25.355469 35.320312 52.738281 34.898438 53.285156 34.597656 C 55.265625 33.527344 55.167969 28.644531 53.109375 27.699219 C 51.699219 27.050781 51.476562 27.152344 47.613281 30.464844 C 45.683594 32.109375 44.246094 32.878906 43.109375 32.878906 C 41.894531 32.878906 40.757812 31.632812 40.359375 29.84375 L 40.035156 28.445312 L 38.800781 29.816406 C 34.691406 34.324219 30.109375 33.304688 29.488281 27.722656 L 29.292969 26.03125 Z M 52.738281 30.863281 C 53.085938 31.535156 52.21875 32.132812 50.957031 32.132812 C 49.792969 32.132812 49.769531 31.859375 50.832031 31.039062 C 51.773438 30.265625 52.394531 30.214844 52.738281 30.863281 Z M 52.738281 30.863281 "/>
<path style=" stroke:none;fill-rule:nonzero;fill:rgb(0%,0%,0%);fill-opacity:1;" d="M 57.222656 33.902344 C 56.824219 35.121094 56.75 35.769531 56.921875 35.945312 C 57.195312 36.21875 57.492188 35.59375 58.011719 33.703125 C 58.210938 32.929688 58.210938 32.554688 58.011719 32.359375 C 57.816406 32.15625 57.59375 32.605469 57.222656 33.902344 Z M 57.222656 33.902344 "/>
<path style=" stroke:none;fill-rule:nonzero;fill:rgb(0%,0%,0%);fill-opacity:1;" d="M 22.976562 36.667969 L 22.902344 37.738281 L 22.628906 36.867188 C 22.433594 36.144531 22.261719 35.96875 21.589844 35.917969 L 20.800781 35.84375 L 20.800781 44.089844 L 21.542969 44.089844 C 22.234375 44.089844 22.285156 44.015625 22.285156 43.144531 C 22.285156 42.46875 22.359375 42.320312 22.53125 42.59375 C 22.65625 42.792969 22.78125 43.21875 22.78125 43.515625 C 22.78125 44.015625 22.902344 44.089844 23.648438 44.089844 L 24.511719 44.089844 L 24.511719 35.621094 L 23.792969 35.621094 C 23.101562 35.621094 23.050781 35.695312 22.976562 36.667969 Z M 22.976562 36.667969 "/>
<path style=" stroke:none;fill-rule:nonzero;fill:rgb(0%,0%,0%);fill-opacity:1;" d="M 26.121094 36.242188 C 25.527344 36.816406 25.503906 36.964844 25.503906 40.105469 C 25.503906 43.070312 25.554688 43.390625 26.023438 43.867188 C 26.445312 44.289062 26.742188 44.363281 27.460938 44.238281 C 27.953125 44.164062 28.597656 44.089844 28.921875 44.089844 C 29.441406 44.089844 29.464844 44.015625 29.464844 41.847656 L 29.464844 39.605469 L 27.238281 39.605469 L 27.261719 38.660156 C 27.308594 37.914062 27.335938 37.863281 27.410156 38.410156 C 27.507812 39.03125 27.609375 39.109375 28.5 39.109375 C 29.390625 39.109375 29.464844 39.058594 29.464844 38.386719 C 29.464844 36.042969 27.535156 34.796875 26.121094 36.242188 Z M 27.410156 42.148438 C 27.335938 42.320312 27.285156 42.195312 27.285156 41.847656 C 27.285156 41.5 27.335938 41.375 27.410156 41.523438 C 27.460938 41.699219 27.460938 41.996094 27.410156 42.148438 Z M 27.410156 42.148438 "/>
<path style=" stroke:none;fill-rule:nonzero;fill:rgb(0%,0%,0%);fill-opacity:1;" d="M 36.472656 35.796875 L 35.160156 35.894531 L 35.109375 37.4375 C 35.058594 39.308594 35.058594 41.027344 35.109375 42.769531 L 35.160156 44.089844 L 38.128906 44.089844 L 38.128906 43.242188 C 38.128906 42.546875 38.03125 42.371094 37.585938 42.296875 C 36.792969 42.195312 36.621094 40.851562 37.363281 40.851562 C 37.808594 40.851562 37.882812 40.703125 37.882812 39.855469 C 37.882812 39.03125 37.808594 38.859375 37.386719 38.859375 C 37.066406 38.859375 36.894531 38.683594 36.894531 38.359375 C 36.894531 38.035156 37.066406 37.863281 37.386719 37.863281 C 37.808594 37.863281 37.882812 37.6875 37.882812 36.742188 C 37.882812 36.117188 37.859375 35.644531 37.832031 35.671875 C 37.785156 35.695312 37.164062 35.746094 36.472656 35.796875 Z M 36.472656 35.796875 "/>
<path style=" stroke:none;fill-rule:nonzero;fill:rgb(0%,0%,0%);fill-opacity:1;" d="M 44 36.117188 C 43.183594 36.765625 42.984375 38.035156 43.207031 41.027344 C 43.40625 43.714844 43.777344 44.339844 45.136719 44.339844 C 46.328125 44.339844 46.996094 43.542969 47.070312 41.972656 L 47.144531 40.726562 L 46.253906 40.652344 C 45.335938 40.578125 45.335938 40.578125 45.238281 41.648438 C 45.1875 42.246094 45.136719 41.546875 45.136719 40.105469 C 45.136719 38.660156 45.1875 37.960938 45.238281 38.558594 C 45.335938 39.632812 45.335938 39.632812 46.253906 39.554688 L 47.144531 39.480469 L 47.09375 38.109375 C 47.042969 37.015625 46.898438 36.640625 46.402344 36.167969 C 45.632812 35.496094 44.839844 35.46875 44 36.117188 Z M 44 36.117188 "/>
<path style=" stroke:none;fill-rule:nonzero;fill:rgb(0%,0%,0%);fill-opacity:1;" d="M 50.113281 35.96875 C 50.066406 36.117188 49.992188 36.640625 49.941406 37.117188 C 49.84375 37.9375 49.84375 37.914062 49.816406 36.914062 C 49.769531 35.894531 49.742188 35.871094 48.902344 35.871094 L 48.035156 35.871094 L 48.035156 44.089844 L 48.902344 44.089844 C 49.742188 44.089844 49.769531 44.0625 49.816406 43.019531 L 49.84375 41.972656 L 49.992188 43.09375 C 50.066406 43.714844 50.214844 44.1875 50.335938 44.140625 C 50.4375 44.113281 50.859375 44.089844 51.253906 44.089844 L 51.996094 44.089844 L 51.996094 40.851562 L 52.886719 40.476562 C 53.953125 40.03125 53.902344 39.457031 52.789062 39.554688 L 51.996094 39.632812 L 51.996094 35.917969 L 51.105469 35.820312 C 50.609375 35.769531 50.164062 35.820312 50.113281 35.96875 Z M 50.113281 35.96875 "/>
<path style=" stroke:none;fill-rule:nonzero;fill:rgb(0%,0%,0%);fill-opacity:1;" d="M 12.628906 37.390625 L 12.628906 38.90625 L 11.886719 38.757812 C 11.265625 38.632812 11.140625 38.710938 11.140625 39.132812 C 11.140625 39.457031 11.390625 39.730469 11.886719 39.878906 C 12.628906 40.152344 12.628906 40.152344 12.628906 42.121094 L 12.628906 44.089844 L 15.597656 44.089844 L 15.597656 43.316406 C 15.597656 42.769531 15.476562 42.519531 15.101562 42.421875 C 14.632812 42.296875 14.609375 42.070312 14.609375 39.082031 L 14.609375 35.871094 L 12.628906 35.871094 Z M 12.628906 37.390625 "/>
<path style=" stroke:none;fill-rule:nonzero;fill:rgb(0%,0%,0%);fill-opacity:1;" d="M 30.207031 39.980469 L 30.207031 44.089844 L 31.917969 44.089844 C 33.105469 44.089844 33.699219 43.992188 33.921875 43.714844 C 34.167969 43.417969 34.167969 41.625 33.921875 39.730469 C 33.898438 39.582031 33.972656 39.082031 34.046875 38.609375 C 34.167969 38.011719 34.09375 37.390625 33.824219 36.789062 L 33.449219 35.871094 L 30.207031 35.871094 Z M 32.4375 38.261719 C 32.4375 38.460938 32.335938 38.558594 32.1875 38.484375 C 32.066406 38.410156 31.941406 38.234375 31.941406 38.085938 C 31.941406 37.960938 32.066406 37.863281 32.1875 37.863281 C 32.335938 37.863281 32.4375 38.035156 32.4375 38.261719 Z M 32.3125 41.597656 C 32.386719 41.722656 32.335938 41.847656 32.214844 41.847656 C 32.066406 41.847656 31.941406 41.722656 31.941406 41.597656 C 31.941406 41.449219 31.988281 41.351562 32.039062 41.351562 C 32.113281 41.351562 32.238281 41.449219 32.3125 41.597656 Z M 32.3125 41.597656 "/>
<path style=" stroke:none;fill-rule:nonzero;fill:rgb(0%,0%,0%);fill-opacity:1;" d="M 38.898438 38.90625 C 38.75 40.601562 38.550781 42.445312 38.476562 43.019531 L 38.328125 44.089844 L 39.34375 44.089844 C 40.261719 44.089844 40.359375 44.039062 40.359375 43.441406 C 40.359375 43.09375 40.457031 42.867188 40.605469 42.96875 C 40.757812 43.042969 40.855469 43.34375 40.855469 43.617188 C 40.855469 43.992188 41.027344 44.089844 41.746094 44.089844 L 42.664062 44.089844 L 42.511719 42.769531 C 42.441406 42.070312 42.242188 40.203125 42.066406 38.660156 L 41.769531 35.871094 L 39.195312 35.871094 Z M 38.898438 38.90625 "/>
<path style=" stroke:none;fill-rule:nonzero;fill:rgb(0%,0%,0%);fill-opacity:1;" d="M 55.140625 37.738281 C 54.449219 38.558594 54.25 38.957031 54.421875 39.257812 C 54.597656 39.582031 54.792969 39.457031 55.535156 38.632812 C 56.355469 37.710938 56.75 36.59375 56.28125 36.617188 C 56.15625 36.640625 55.660156 37.140625 55.140625 37.738281 Z M 55.140625 37.738281 "/>
<path style=" stroke:none;fill-rule:nonzero;fill:rgb(0%,0%,0%);fill-opacity:1;" d="M 8.070312 37.835938 C 7.675781 38.285156 7.527344 39.109375 7.875 39.109375 C 7.972656 39.109375 8.195312 39.007812 8.394531 38.882812 C 8.640625 38.734375 8.988281 38.757812 9.433594 38.984375 C 9.78125 39.183594 10.152344 39.257812 10.25 39.183594 C 10.621094 38.808594 10.324219 38.335938 9.433594 37.886719 C 8.515625 37.414062 8.46875 37.414062 8.070312 37.835938 Z M 8.070312 37.835938 "/>
<path style=" stroke:none;fill-rule:nonzero;fill:rgb(0%,0%,0%);fill-opacity:1;" d="M 5.695312 39.183594 C 5 39.53125 4.703125 40.351562 5.300781 40.351562 C 6.117188 40.351562 6.933594 39.855469 6.933594 39.355469 C 6.933594 38.785156 6.585938 38.734375 5.695312 39.183594 Z M 5.695312 39.183594 "/>
</g>
</svg>
